<mxfile host="app.diagrams.net" modified="2022-04-06T12:17:54.603Z" agent="5.0 (Windows)" etag="46slvKrxNq_9UdckV4ha" version="17.4.0" type="github">
  <diagram id="xuk0DAq48zgh9Yn3rXEd" name="Page-1">
    <mxGraphModel dx="1422" dy="775" grid="1" gridSize="10" guides="1" tooltips="1" connect="1" arrows="1" fold="1" page="1" pageScale="1" pageWidth="850" pageHeight="1100" math="0" shadow="0">
      <root>
        <mxCell id="0" />
        <mxCell id="1" parent="0" />
        <mxCell id="406kqLCGeTMxlUy9eYIb-13" style="edgeStyle=orthogonalEdgeStyle;rounded=0;orthogonalLoop=1;jettySize=auto;html=1;" edge="1" parent="1" source="406kqLCGeTMxlUy9eYIb-3">
          <mxGeometry relative="1" as="geometry">
            <mxPoint x="180" y="400" as="targetPoint" />
          </mxGeometry>
        </mxCell>
        <mxCell id="406kqLCGeTMxlUy9eYIb-14" style="edgeStyle=orthogonalEdgeStyle;rounded=0;orthogonalLoop=1;jettySize=auto;html=1;entryX=0.5;entryY=0;entryDx=0;entryDy=0;" edge="1" parent="1" source="406kqLCGeTMxlUy9eYIb-3" target="406kqLCGeTMxlUy9eYIb-7">
          <mxGeometry relative="1" as="geometry" />
        </mxCell>
        <mxCell id="406kqLCGeTMxlUy9eYIb-15" style="edgeStyle=orthogonalEdgeStyle;rounded=0;orthogonalLoop=1;jettySize=auto;html=1;" edge="1" parent="1" source="406kqLCGeTMxlUy9eYIb-3">
          <mxGeometry relative="1" as="geometry">
            <mxPoint x="470" y="400" as="targetPoint" />
          </mxGeometry>
        </mxCell>
        <mxCell id="406kqLCGeTMxlUy9eYIb-16" style="edgeStyle=orthogonalEdgeStyle;rounded=0;orthogonalLoop=1;jettySize=auto;html=1;entryX=0.567;entryY=-0.017;entryDx=0;entryDy=0;entryPerimeter=0;" edge="1" parent="1" source="406kqLCGeTMxlUy9eYIb-3" target="406kqLCGeTMxlUy9eYIb-5">
          <mxGeometry relative="1" as="geometry" />
        </mxCell>
        <mxCell id="406kqLCGeTMxlUy9eYIb-17" style="edgeStyle=orthogonalEdgeStyle;rounded=0;orthogonalLoop=1;jettySize=auto;html=1;entryX=0.5;entryY=0;entryDx=0;entryDy=0;" edge="1" parent="1" source="406kqLCGeTMxlUy9eYIb-3" target="406kqLCGeTMxlUy9eYIb-12">
          <mxGeometry relative="1" as="geometry" />
        </mxCell>
        <mxCell id="406kqLCGeTMxlUy9eYIb-18" style="edgeStyle=orthogonalEdgeStyle;rounded=0;orthogonalLoop=1;jettySize=auto;html=1;entryX=0.5;entryY=0;entryDx=0;entryDy=0;" edge="1" parent="1" source="406kqLCGeTMxlUy9eYIb-3" target="406kqLCGeTMxlUy9eYIb-11">
          <mxGeometry relative="1" as="geometry" />
        </mxCell>
        <mxCell id="406kqLCGeTMxlUy9eYIb-3" value="" style="rounded=1;whiteSpace=wrap;html=1;" vertex="1" parent="1">
          <mxGeometry x="630" y="180" width="120" height="60" as="geometry" />
        </mxCell>
        <mxCell id="406kqLCGeTMxlUy9eYIb-5" value="" style="rounded=1;whiteSpace=wrap;html=1;" vertex="1" parent="1">
          <mxGeometry x="560" y="410" width="120" height="60" as="geometry" />
        </mxCell>
        <mxCell id="406kqLCGeTMxlUy9eYIb-6" value="" style="rounded=1;whiteSpace=wrap;html=1;" vertex="1" parent="1">
          <mxGeometry x="410" y="410" width="120" height="60" as="geometry" />
        </mxCell>
        <mxCell id="406kqLCGeTMxlUy9eYIb-7" value="" style="rounded=1;whiteSpace=wrap;html=1;" vertex="1" parent="1">
          <mxGeometry x="260" y="410" width="120" height="60" as="geometry" />
        </mxCell>
        <mxCell id="406kqLCGeTMxlUy9eYIb-8" value="" style="rounded=1;whiteSpace=wrap;html=1;" vertex="1" parent="1">
          <mxGeometry x="110" y="410" width="120" height="60" as="geometry" />
        </mxCell>
        <mxCell id="406kqLCGeTMxlUy9eYIb-11" value="" style="rounded=1;whiteSpace=wrap;html=1;" vertex="1" parent="1">
          <mxGeometry x="890" y="410" width="120" height="60" as="geometry" />
        </mxCell>
        <mxCell id="406kqLCGeTMxlUy9eYIb-12" value="" style="rounded=1;whiteSpace=wrap;html=1;" vertex="1" parent="1">
          <mxGeometry x="740" y="410" width="120" height="60" as="geometry" />
        </mxCell>
        <mxCell id="406kqLCGeTMxlUy9eYIb-20" value="" style="shape=flexArrow;endArrow=classic;startArrow=classic;html=1;rounded=0;width=18;endSize=6;startSize=6;" edge="1" parent="1">
          <mxGeometry width="100" height="100" relative="1" as="geometry">
            <mxPoint x="690" y="170" as="sourcePoint" />
            <mxPoint x="690.0085714285715" y="70" as="targetPoint" />
          </mxGeometry>
        </mxCell>
        <mxCell id="406kqLCGeTMxlUy9eYIb-22" value="" style="rounded=1;whiteSpace=wrap;html=1;" vertex="1" parent="1">
          <mxGeometry x="700" y="600" width="120" height="60" as="geometry" />
        </mxCell>
        <mxCell id="406kqLCGeTMxlUy9eYIb-24" value="" style="rounded=0;whiteSpace=wrap;html=1;" vertex="1" parent="1">
          <mxGeometry x="440" y="600" width="120" height="60" as="geometry" />
        </mxCell>
        <mxCell id="406kqLCGeTMxlUy9eYIb-25" style="edgeStyle=orthogonalEdgeStyle;rounded=0;orthogonalLoop=1;jettySize=auto;html=1;exitX=0.5;exitY=1;exitDx=0;exitDy=0;" edge="1" parent="1" source="406kqLCGeTMxlUy9eYIb-22" target="406kqLCGeTMxlUy9eYIb-22">
          <mxGeometry relative="1" as="geometry" />
        </mxCell>
      </root>
    </mxGraphModel>
  </diagram>
</mxfile>
